<svg width="35" height="35" viewBox="0 0 35 35" fill="none" xmlns="http://www.w3.org/2000/svg">
<path fill-rule="evenodd" clip-rule="evenodd" d="M4.32822e-07 2.92409C4.32822e-07 2.14858 0.308073 1.40482 0.856447 0.85645C1.40482 0.308077 2.14857 3.89823e-06 2.92409 3.89823e-06H32.0727C32.457 -0.000623797 32.8377 0.0745585 33.193 0.221246C33.5482 0.367934 33.871 0.583247 34.1429 0.854857C34.4148 1.12647 34.6305 1.44904 34.7775 1.80411C34.9246 2.15918 35.0002 2.53977 35 2.92409V32.0727C35.0004 32.4571 34.925 32.8378 34.7782 33.1931C34.6313 33.5483 34.4159 33.8711 34.1441 34.143C33.8724 34.4149 33.5497 34.6305 33.1945 34.7776C32.8394 34.9246 32.4587 35.0002 32.0743 35H2.92409C2.53996 35 2.15959 34.9243 1.80472 34.7773C1.44985 34.6302 1.12743 34.4147 0.855884 34.143C0.584336 33.8713 0.368983 33.5488 0.222127 33.1938C0.0752711 32.8389 -0.000208561 32.4584 4.32822e-07 32.0743V2.92409ZM13.8536 13.3445H18.593V15.7245C19.277 14.3564 21.027 13.125 23.6568 13.125C28.6984 13.125 29.8932 15.8502 29.8932 20.8505V30.1127H24.7911V21.9895C24.7911 19.1418 24.107 17.535 22.3698 17.535C19.9595 17.535 18.9573 19.2675 18.9573 21.9895V30.1127H13.8536V13.3445ZM5.10364 29.8948H10.2073V13.125H5.10364V29.8932V29.8948ZM10.9375 7.65546C10.9471 8.09244 10.8694 8.52694 10.7088 8.93346C10.5482 9.33998 10.3081 9.71033 10.0024 10.0228C9.69677 10.3352 9.33179 10.5835 8.92891 10.753C8.52602 10.9225 8.09334 11.0098 7.65625 11.0098C7.21917 11.0098 6.78648 10.9225 6.38359 10.753C5.98071 10.5835 5.61573 10.3352 5.31009 10.0228C5.00444 9.71033 4.76428 9.33998 4.60371 8.93346C4.44314 8.52694 4.36538 8.09244 4.375 7.65546C4.39389 6.79773 4.74789 5.98149 5.36118 5.38155C5.97448 4.78161 6.79831 4.44567 7.65625 4.44567C8.51419 4.44567 9.33802 4.78161 9.95132 5.38155C10.5646 5.98149 10.9186 6.79773 10.9375 7.65546V7.65546Z" fill="white"/>
</svg>
