<svg width="75" height="93" viewBox="0 0 75 93" fill="none" xmlns="http://www.w3.org/2000/svg">
<path d="M73.489 11.9169L39.0407 0.212259C38.6251 0.070753 38.0675 0 37.5099 0C36.9523 0 36.3948 0.070753 35.9791 0.212259L1.53081 11.9169C0.689372 12.1999 0 13.1702 0 14.0597V62.8187C0 63.7082 0.577856 64.8807 1.27737 65.4366L36.2224 92.5856C36.5772 92.8585 37.0334 93 37.4998 93C37.9661 93 38.4325 92.8585 38.7771 92.5856L73.7222 65.4366C74.4217 64.8908 74.9996 63.7183 74.9996 62.8187V14.0597C75.0198 13.1702 74.3305 12.21 73.489 11.9169V11.9169ZM56.0114 29.1806L34.4584 58.7656C34.3069 58.9723 34.1086 59.1405 33.8796 59.2565C33.6506 59.3725 33.3974 59.4329 33.1405 59.4329C32.8837 59.4329 32.6305 59.3725 32.4015 59.2565C32.1725 59.1405 31.9741 58.9723 31.8226 58.7656L19.0084 41.1783C18.6232 40.6426 19.0084 39.8947 19.6674 39.8947H25.2634C25.7805 39.8947 26.2772 40.1474 26.5814 40.5618L33.1405 49.5575L48.4385 28.554C48.7426 28.1395 49.2292 27.8869 49.7564 27.8869H55.3525C56.0114 27.897 56.3967 28.6449 56.0114 29.1806V29.1806Z" fill="#64B5F6"/>
</svg>
