<svg width="24" height="24" viewBox="0 0 24 24" fill="none" xmlns="http://www.w3.org/2000/svg">
<path fill-rule="evenodd" clip-rule="evenodd" d="M12 0C5.375 0 0 5.375 0 12C0 18.625 5.375 24 12 24C18.612 24 24 18.625 24 12C24 5.375 18.612 0 12 0ZM19.926 5.531C21.4035 7.33034 22.2211 9.5809 22.243 11.909C21.905 11.844 18.521 11.154 15.111 11.584C15.032 11.414 14.967 11.232 14.889 11.05C14.6769 10.5494 14.4515 10.0546 14.213 9.566C17.987 8.03 19.705 5.818 19.926 5.531V5.531ZM12 1.771C14.603 1.771 16.985 2.746 18.794 4.347C18.612 4.607 17.063 6.677 13.419 8.043C11.739 4.959 9.879 2.433 9.592 2.043C10.3813 1.85869 11.1894 1.76707 12 1.77V1.771ZM7.64 2.733C7.913 3.098 9.735 5.636 11.44 8.655C6.65 9.931 2.42 9.905 1.965 9.905C2.629 6.729 4.777 4.087 7.64 2.733ZM1.744 12.013V11.701C2.187 11.714 7.158 11.779 12.274 10.243C12.573 10.816 12.846 11.401 13.106 11.987C12.976 12.026 12.833 12.065 12.703 12.104C7.419 13.809 4.607 18.468 4.373 18.859C2.68041 16.9805 1.7438 14.5415 1.744 12.013V12.013ZM12 22.256C9.72201 22.2596 7.50864 21.499 5.714 20.096C5.896 19.718 7.978 15.709 13.757 13.692C13.783 13.679 13.797 13.679 13.822 13.666C15.267 17.401 15.852 20.538 16.009 21.436C14.772 21.97 13.419 22.256 12 22.256ZM17.714 20.499C17.61 19.874 17.063 16.881 15.722 13.197C18.937 12.69 21.748 13.523 22.1 13.64C21.657 16.49 20.017 18.95 17.714 20.499Z" fill="black"/>
</svg>
