<svg width="80" height="80" viewBox="0 0 80 80" fill="none" xmlns="http://www.w3.org/2000/svg">
<rect width="80" height="80" rx="10" fill="#64B5F6"/>
<path d="M28.8182 41.5H46.8182M46.8182 41.5L43.5455 38.2M46.8182 41.5L43.5455 44.8M28.8182 41.5L25.5455 38.2H19L22.2727 41.5L19 44.8H25.5455L28.8182 41.5ZM46 58C50.9713 58 55 50.6129 55 41.5C55 32.3871 50.9713 25 46 25C41.0287 25 37 32.3871 37 41.5C37 50.6129 41.0287 58 46 58Z" stroke="white" stroke-width="1.5" stroke-linecap="round" stroke-linejoin="round"/>
<path d="M61 41C61 54.2548 54.732 65 47 65C39.268 65 33 54.2548 33 41C33 27.7452 39.268 17 47 17C54.732 17 61 27.7452 61 41ZM34.4 41C34.4 52.9293 40.0412 62.6 47 62.6C53.9588 62.6 59.6 52.9293 59.6 41C59.6 29.0707 53.9588 19.4 47 19.4C40.0412 19.4 34.4 29.0707 34.4 41Z" fill="white"/>
</svg>
