<svg width="60" height="60" viewBox="0 0 60 60" fill="none" xmlns="http://www.w3.org/2000/svg">
<rect width="60" height="60" rx="15" transform="matrix(1 0 0 -1 0 60)" fill="#64B5F6"/>
<path d="M7.3125 34.9688C7.3125 34.2604 7.35417 33.5104 7.4375 32.7188C7.875 29.1562 9 25.9896 10.8125 23.2188C13.0208 19.8229 15.6771 18.125 18.7812 18.125C20.1354 18.125 21.3125 18.375 22.3125 18.875C22.7083 18.3958 23.2604 18.1458 23.9688 18.125C24.3021 18.125 24.6146 18.1667 24.9062 18.25C25.6979 18.5417 26.0938 19.4167 26.0938 20.875C26.0938 21.4792 25.9896 22.7708 25.7812 24.75C25.1562 30.7083 24.8438 34.3958 24.8438 35.8125C24.8438 36.7708 25.0312 37.6667 25.4062 38.5C25.9896 39.75 26.7708 40.375 27.75 40.375C28.1458 40.375 28.5417 40.3021 28.9375 40.1562C31.875 39.1354 34.3646 34.6354 36.4062 26.6562C35.5729 26.4479 34.8021 26.1042 34.0938 25.625C32.1979 24.3542 31.25 22.5104 31.25 20.0938C31.25 19.1979 31.4792 18.3542 31.9375 17.5625C32.8542 15.9792 34.3125 15.1875 36.3125 15.1875C37.3333 15.1875 38.3021 15.4583 39.2188 16C40.7188 16.9375 41.4688 18.2292 41.4688 19.875C41.4688 20.5417 41.4167 21.3958 41.3125 22.4375C41.8125 22.1667 42.5417 21.7083 43.5 21.0625C44.625 20.2708 45.4688 19.875 46.0312 19.875C46.6771 19.875 47.2604 20.0417 47.7812 20.375C48.3854 20.75 48.6875 21.1354 48.6875 21.5312C48.6875 21.6562 48.6146 21.9896 48.4688 22.5312C47.3854 26.1354 46.8438 29.3125 46.8438 32.0625C46.8438 34.1042 47.0521 35.7708 47.4688 37.0625C48.0521 38.7708 48.9167 39.625 50.0625 39.625C50.7083 39.5833 51.7604 39.125 53.2188 38.25C54.4896 37.3958 55.4375 36.9688 56.0625 36.9688C56.375 36.9688 56.6875 37.0833 57 37.3125C57.5417 37.7083 57.8125 38.1771 57.8125 38.7188C57.75 39.8854 56.9375 41.0729 55.375 42.2812C53.5208 43.6354 51.5417 44.3125 49.4375 44.3125C49.1875 44.3125 48.9271 44.3021 48.6562 44.2812C46.3438 43.9896 44.6458 42.6562 43.5625 40.2812C42.7708 38.8854 42.375 36.4688 42.375 33.0312C42.375 32.3646 42.3958 31.6562 42.4375 30.9062C42.5625 28.6354 42.75 27.0104 43 26.0312C42.3542 26.3438 41.5729 26.5938 40.6562 26.7812C40.5312 27.4271 40.3958 28.0625 40.25 28.6875C37.6875 39.5208 33.2708 44.9375 27 44.9375C24.375 44.9167 22.4583 43.5938 21.25 40.9688C20.9792 41.2812 20.6667 41.6042 20.3125 41.9375C18.2083 43.9375 16.0833 44.9375 13.9375 44.9375C12.6042 44.9375 11.4479 44.5938 10.4688 43.9062C8.36458 42.3646 7.3125 39.3854 7.3125 34.9688ZM20.9062 25.7188C20.9271 25.5938 21.0521 24.5521 21.2812 22.5938C20.7604 22.3438 20.2812 22.2188 19.8438 22.2188C19.4479 22.2188 19.0521 22.2708 18.6562 22.375C16.7396 22.9583 15.1146 24.7708 13.7812 27.8125C12.5729 30.5417 11.9688 33.2604 11.9688 35.9688C11.9688 36.3646 11.9896 36.7396 12.0312 37.0938C12.2188 39.1146 12.8542 40.125 13.9375 40.125C14.5208 40.125 15.2292 39.8333 16.0625 39.25C17.0417 38.5625 17.8229 37.8438 18.4062 37.0938C18.5729 36.8438 18.8021 36.1875 19.0938 35.125C19.9062 32.0833 20.5104 28.9479 20.9062 25.7188ZM35.0312 20.3125C35.0521 21.4792 35.7812 22.3125 37.2188 22.8125C37.4271 21.5208 37.5312 20.6875 37.5312 20.3125C37.5312 20.1875 37.5104 20.0521 37.4688 19.9062C37.3229 19.3229 36.9479 19.0312 36.3438 19.0312C36.2188 19.0312 36.0833 19.0521 35.9375 19.0938C35.3333 19.2812 35.0312 19.6875 35.0312 20.3125Z" fill="white"/>
</svg>
