<svg width="59" height="93" viewBox="0 0 59 93" fill="none" xmlns="http://www.w3.org/2000/svg">
<path d="M29.5568 0C15.7995 0 4.53972 11.192 4.53972 24.8659V28.2621H14.5585V24.8659C14.5585 16.5736 21.2142 9.95826 29.5568 9.95826C37.8994 9.95826 44.5551 16.5736 44.5551 24.8659V38.4894C40.1416 35.8682 34.991 34.3577 29.5 34.3577C13.2671 34.3577 0 47.5443 0 63.6788C0 79.8134 13.2671 93 29.5 93C45.7329 93 59 79.8136 59 63.6788C59 58.0383 57.377 52.7591 54.5741 48.2767V24.8659C54.5741 11.192 43.3143 0 29.557 0H29.5568ZM29.5 44.316C40.3182 44.316 48.981 52.9262 48.981 63.6788C48.981 74.4317 40.3182 83.0417 29.5 83.0417C18.6818 83.0417 10.019 74.4317 10.019 63.6788C10.019 52.9262 18.6818 44.316 29.5 44.316V44.316ZM29.5962 55.5518C25.0312 55.5518 21.3307 59.2299 21.3307 63.7672C21.3307 68.3046 25.0312 71.9827 29.5962 71.9827C34.1611 71.9827 37.8618 68.3046 37.8618 63.7672C37.8618 59.2299 34.1611 55.5518 29.5962 55.5518Z" fill="#64B5F6"/>
</svg>
