<svg width="88" height="88" viewBox="0 0 88 88" fill="none" xmlns="http://www.w3.org/2000/svg">
<path fill-rule="evenodd" clip-rule="evenodd" d="M0 0H75.779V12.2212H70.8901V4.8885H4.88897V61.1062H57.1692V65.9947H0V0ZM73.3345 31.7752C75.2795 31.7752 77.1448 31.0027 78.5201 29.6275C79.8954 28.2524 80.668 26.3872 80.668 24.4425C80.668 22.4977 79.8954 20.6326 78.5201 19.2574C77.1448 17.8823 75.2795 17.1097 73.3345 17.1097C71.3896 17.1097 69.5243 17.8823 68.149 19.2574C66.7737 20.6326 66.0011 22.4977 66.0011 24.4425C66.0011 26.3872 66.7737 28.2524 68.149 29.6275C69.5243 31.0027 71.3896 31.7752 73.3345 31.7752ZM78.2993 36.6882C81.4747 36.6882 83.9876 38.1156 85.6327 40.3203C87.1703 42.3857 87.8206 44.9399 87.9672 47.2986C88.1109 49.7182 87.7813 52.1425 86.9968 54.4359C86.2634 56.5623 85.0241 58.7622 83.1125 60.2703V84.3266C83.1143 85.2477 82.7692 86.1358 82.1459 86.8142C81.5226 87.4925 80.6668 87.9114 79.7486 87.9875C78.8305 88.0636 77.9174 87.7913 77.1909 87.2248C76.4645 86.6583 75.9779 85.8392 75.8279 84.9303L72.6745 65.9947H71.9461L68.382 85.0012C68.2128 85.8982 67.715 86.6999 66.9859 87.2493C66.2569 87.7988 65.3491 88.0566 64.44 87.9722C63.531 87.8878 62.6861 87.4674 62.0706 86.7932C61.4552 86.119 61.1134 85.2394 61.1121 84.3266V49.4545C60.6233 50.199 60.1409 50.9478 59.665 51.7007L59.4743 52.0014L59.4254 52.0796L59.4132 52.1016C59.0838 52.6305 58.6249 53.0668 58.08 53.3691C57.5351 53.6715 56.9221 53.83 56.2989 53.8297H44.0765C43.104 53.8297 42.1714 53.4434 41.4837 52.7558C40.7961 52.0682 40.4098 51.1357 40.4098 50.1633C40.4098 49.1909 40.7961 48.2584 41.4837 47.5708C42.1714 46.8832 43.104 46.4969 44.0765 46.4969H54.2871C54.8811 45.5779 55.6634 44.3851 56.4847 43.1874C57.3403 41.9384 58.2839 40.6161 59.1248 39.5797C59.533 39.0738 59.9901 38.5458 60.4497 38.1132C60.6746 37.9005 60.9875 37.6243 61.3688 37.3799C62.0418 36.9382 62.8274 36.699 63.6324 36.6906H78.2993V36.6882Z" fill="#64B5F6"/>
</svg>
