<svg width="92" height="81" viewBox="0 0 92 81" fill="none" xmlns="http://www.w3.org/2000/svg">
<path d="M51.8179 0C29.967 0 12.1913 17.5928 11.6604 39.4924V40.5049H0L17.6675 59.7375L34.8435 40.5049H21.7084V39.4924C22.2344 23.1788 35.5121 10.1299 51.8179 10.1299C68.4629 10.1299 81.9569 23.732 81.9569 40.5049C81.9569 57.2779 68.4629 70.8799 51.8179 70.8799C45.4002 70.8837 39.1505 68.8184 33.9881 64.9877L27.0765 72.416C34.1308 77.9865 42.8455 81.0101 51.8179 81C74.0129 81 92 62.8738 92 40.5049C92 18.1361 74.0129 0 51.8179 0ZM46.9021 15.8098V40.5049C46.9077 41.8137 47.425 43.0678 48.3424 43.9968L64.0731 59.8017C65.4643 58.8978 66.7768 57.8804 67.9419 56.7L56.7337 45.444V15.8098H46.9021Z" fill="#64B5F6"/>
</svg>
