<svg width="107" height="107" viewBox="0 0 107 107" fill="none" xmlns="http://www.w3.org/2000/svg">
<path d="M102.72 0H4.28C1.91262 0 0 1.91262 0 4.28V102.72C0 105.087 1.91262 107 4.28 107H102.72C105.087 107 107 105.087 107 102.72V4.28C107 1.91262 105.087 0 102.72 0ZM31.7389 91.1774H15.8628V40.1116H31.7389V91.1774ZM23.8075 33.1299C21.9875 33.1299 20.2084 32.5902 18.6951 31.5791C17.1819 30.5679 16.0024 29.1308 15.306 27.4493C14.6095 25.7679 14.4273 23.9177 14.7823 22.1327C15.1374 20.3476 16.0138 18.708 17.3007 17.4211C18.5876 16.1342 20.2273 15.2577 22.0123 14.9027C23.7973 14.5476 25.6475 14.7299 27.329 15.4263C29.0104 16.1228 30.4476 17.3023 31.4587 18.8155C32.4698 20.3288 33.0095 22.1079 33.0095 23.9279C32.9961 29.0104 28.8766 33.1299 23.8075 33.1299ZM91.1774 91.1774H75.3146V66.34C75.3146 60.4149 75.2076 52.8045 67.0623 52.8045C58.8099 52.8045 57.5393 59.2513 57.5393 65.912V91.1774H41.6899V40.1116H56.9106V47.0934H57.1246C59.2379 43.0809 64.414 38.841 72.1448 38.841C88.2215 38.841 91.1774 49.4206 91.1774 63.1701V91.1774V91.1774Z" fill="#606060"/>
</svg>
