<svg width="106" height="46" viewBox="0 0 106 46" fill="none" xmlns="http://www.w3.org/2000/svg">
<rect width="106" height="46" fill="white"/>
<path d="M32.1562 26.9844C32.1562 26.6302 32.1771 26.2552 32.2188 25.8594C32.4375 24.0781 33 22.4948 33.9062 21.1094C35.0104 19.4115 36.3385 18.5625 37.8906 18.5625C38.5677 18.5625 39.1562 18.6875 39.6562 18.9375C39.8542 18.6979 40.1302 18.5729 40.4844 18.5625C40.651 18.5625 40.8073 18.5833 40.9531 18.625C41.349 18.7708 41.5469 19.2083 41.5469 19.9375C41.5469 20.2396 41.4948 20.8854 41.3906 21.875C41.0781 24.8542 40.9219 26.6979 40.9219 27.4062C40.9219 27.8854 41.0156 28.3333 41.2031 28.75C41.4948 29.375 41.8854 29.6875 42.375 29.6875C42.5729 29.6875 42.7708 29.651 42.9688 29.5781C44.4375 29.0677 45.6823 26.8177 46.7031 22.8281C46.2865 22.724 45.901 22.5521 45.5469 22.3125C44.599 21.6771 44.125 20.7552 44.125 19.5469C44.125 19.099 44.2396 18.6771 44.4688 18.2812C44.9271 17.4896 45.6562 17.0938 46.6562 17.0938C47.1667 17.0938 47.651 17.2292 48.1094 17.5C48.8594 17.9688 49.2344 18.6146 49.2344 19.4375C49.2344 19.7708 49.2083 20.1979 49.1562 20.7188C49.4062 20.5833 49.7708 20.3542 50.25 20.0312C50.8125 19.6354 51.2344 19.4375 51.5156 19.4375C51.8385 19.4375 52.1302 19.5208 52.3906 19.6875C52.6927 19.875 52.8438 20.0677 52.8438 20.2656C52.8438 20.3281 52.8073 20.4948 52.7344 20.7656C52.1927 22.5677 51.9219 24.1562 51.9219 25.5312C51.9219 26.5521 52.026 27.3854 52.2344 28.0312C52.526 28.8854 52.9583 29.3125 53.5312 29.3125C53.8542 29.2917 54.3802 29.0625 55.1094 28.625C55.7448 28.1979 56.2188 27.9844 56.5312 27.9844C56.6875 27.9844 56.8438 28.0417 57 28.1562C57.2708 28.3542 57.4062 28.5885 57.4062 28.8594C57.375 29.4427 56.9688 30.0365 56.1875 30.6406C55.2604 31.3177 54.2708 31.6562 53.2188 31.6562C53.0938 31.6562 52.9635 31.651 52.8281 31.6406C51.6719 31.4948 50.8229 30.8281 50.2812 29.6406C49.8854 28.9427 49.6875 27.7344 49.6875 26.0156C49.6875 25.6823 49.6979 25.3281 49.7188 24.9531C49.7812 23.8177 49.875 23.0052 50 22.5156C49.6771 22.6719 49.2865 22.7969 48.8281 22.8906C48.7656 23.2135 48.6979 23.5312 48.625 23.8438C47.3438 29.2604 45.1354 31.9688 42 31.9688C40.6875 31.9583 39.7292 31.2969 39.125 29.9844C38.9896 30.1406 38.8333 30.3021 38.6562 30.4688C37.6042 31.4688 36.5417 31.9688 35.4688 31.9688C34.8021 31.9688 34.224 31.7969 33.7344 31.4531C32.6823 30.6823 32.1562 29.1927 32.1562 26.9844ZM38.9531 22.3594C38.9635 22.2969 39.026 21.776 39.1406 20.7969C38.8802 20.6719 38.6406 20.6094 38.4219 20.6094C38.224 20.6094 38.026 20.6354 37.8281 20.6875C36.8698 20.9792 36.0573 21.8854 35.3906 23.4062C34.7865 24.7708 34.4844 26.1302 34.4844 27.4844C34.4844 27.6823 34.4948 27.8698 34.5156 28.0469C34.6094 29.0573 34.9271 29.5625 35.4688 29.5625C35.7604 29.5625 36.1146 29.4167 36.5312 29.125C37.0208 28.7812 37.4115 28.4219 37.7031 28.0469C37.7865 27.9219 37.901 27.5938 38.0469 27.0625C38.4531 25.5417 38.7552 23.974 38.9531 22.3594ZM46.0156 19.6562C46.026 20.2396 46.3906 20.6562 47.1094 20.9062C47.2135 20.2604 47.2656 19.8438 47.2656 19.6562C47.2656 19.5938 47.2552 19.526 47.2344 19.4531C47.1615 19.1615 46.974 19.0156 46.6719 19.0156C46.6094 19.0156 46.5417 19.026 46.4688 19.0469C46.1667 19.1406 46.0156 19.3438 46.0156 19.6562ZM56.3906 23.0156C56.401 22.9948 56.4219 22.9479 56.4531 22.875C57.401 20.7292 57.875 19.6458 57.875 19.625C57.875 19.6146 57.8802 19.6042 57.8906 19.5938C58.099 19.0625 58.4948 18.7969 59.0781 18.7969C59.2865 18.8073 59.5 18.8281 59.7188 18.8594C61.4688 19.1302 62.8906 20.0208 63.9844 21.5312C64.9948 22.9375 65.5 24.5417 65.5 26.3438C65.5 27.2917 65.3125 28.2865 64.9375 29.3281C64.3958 30.8594 63.6562 31.625 62.7188 31.625C62.5521 31.625 62.3802 31.5677 62.2031 31.4531C61.8698 31.2031 61.7031 30.8802 61.7031 30.4844C61.7031 30.349 61.7344 30.2083 61.7969 30.0625C61.7969 30.0625 61.8542 29.9583 61.9688 29.75C62.7188 28.5312 63.099 27.3177 63.1094 26.1094C63.1094 25.974 63.1042 25.8333 63.0938 25.6875C62.9896 24.3438 62.4688 23.1979 61.5312 22.25C60.9167 21.625 60.3646 21.3073 59.875 21.2969C59.6979 21.6302 59.3177 22.375 58.7344 23.5312C58.7344 23.5312 58.7292 23.5417 58.7188 23.5625C58.7083 23.5833 58.6979 23.599 58.6875 23.6094C58.2396 24.474 57.7656 24.9062 57.2656 24.9062C57.1198 24.9062 56.9688 24.875 56.8125 24.8125C56.3958 24.625 56.1875 24.3125 56.1875 23.875C56.1875 23.7083 56.2396 23.474 56.3438 23.1719C56.3646 23.099 56.3802 23.0469 56.3906 23.0156ZM66.8594 27.2188C66.8594 26.8646 66.8802 26.4896 66.9219 26.0938C67.1406 24.3125 67.7031 22.7292 68.6094 21.3438C69.7135 19.6458 71.0417 18.7969 72.5938 18.7969C73.0104 18.7969 73.4115 18.849 73.7969 18.9531C75.1719 19.349 75.8594 20.3177 75.8594 21.8594C75.8594 21.974 75.8542 22.0938 75.8438 22.2188C75.7396 23.6146 75.1146 24.7865 73.9688 25.7344C72.8438 26.6719 71.5365 27.1406 70.0469 27.1406C69.7656 27.1406 69.4896 27.1146 69.2188 27.0625C69.1979 27.2188 69.1875 27.4375 69.1875 27.7188C69.1875 28.3229 69.2917 28.7917 69.5 29.125C69.7812 29.5521 70.3594 29.8021 71.2344 29.875C71.6198 29.875 72 29.8333 72.375 29.75C73.0312 29.5938 73.8073 29.224 74.7031 28.6406C75.2865 28.2552 75.6979 28.0625 75.9375 28.0625C76.0729 28.0625 76.2135 28.1042 76.3594 28.1875C76.6927 28.3854 76.8594 28.6719 76.8594 29.0469C76.8594 29.1719 76.8333 29.3073 76.7812 29.4531C76.5 30.1302 75.6562 30.7708 74.25 31.375C72.9479 31.9375 71.8021 32.2188 70.8125 32.2188C70.4375 32.2188 70.0885 32.1875 69.7656 32.125C67.8281 31.7292 66.8594 30.0938 66.8594 27.2188ZM71.875 21.25C70.9271 21.8854 70.1823 23.0938 69.6406 24.875C69.901 24.9375 70.151 24.9688 70.3906 24.9688C71.2552 24.9688 72.0104 24.7031 72.6562 24.1719C73.375 23.5885 73.7344 22.8958 73.7344 22.0938C73.7344 21.2917 73.4792 20.8854 72.9688 20.875C72.6042 20.8854 72.2396 21.0104 71.875 21.25ZM76.8594 27.0312C76.8594 26.6771 76.8802 26.3021 76.9219 25.9062C77.1406 24.125 77.7031 22.5417 78.6094 21.1562C79.7135 19.4583 81.0417 18.6094 82.5938 18.6094C83.1354 18.6094 83.6615 18.7083 84.1719 18.9062L85.4375 9.90625C85.6042 8.6875 86.0417 8.07292 86.75 8.0625C86.8646 8.0625 86.9792 8.07292 87.0938 8.09375C87.5729 8.20833 87.8125 8.66146 87.8125 9.45312C87.8125 9.77604 87.5885 11.6094 87.1406 14.9531C86.1302 22.5677 85.625 26.7552 85.625 27.5156C85.625 27.9948 85.724 28.4427 85.9219 28.8594C86.2135 29.4844 86.6042 29.7969 87.0938 29.7969C87.1875 29.7969 87.2865 29.7865 87.3906 29.7656C87.7031 29.7031 88.1562 29.4635 88.75 29.0469C89.3333 28.6302 89.7969 28.4219 90.1406 28.4219C90.2865 28.4219 90.4219 28.474 90.5469 28.5781C90.7969 28.7865 90.9219 29.0521 90.9219 29.375C90.8802 29.9167 90.474 30.4844 89.7031 31.0781C88.7656 31.7448 87.7708 32.0781 86.7188 32.0781C85.4167 32.0677 84.4323 31.4115 83.7656 30.1094C83.6094 30.2969 83.4323 30.4792 83.2344 30.6562C82.2344 31.5729 81.2188 32.0312 80.1875 32.0312C79.5312 32.0312 78.9635 31.8646 78.4844 31.5312C77.401 30.7812 76.8594 29.2812 76.8594 27.0312ZM82.4219 28.0938C82.5573 27.8958 82.724 27.3802 82.9219 26.5469C83.3385 24.7448 83.6562 22.8542 83.875 20.875C83.6354 20.7604 83.3854 20.6875 83.125 20.6562C82.9375 20.6562 82.7448 20.6823 82.5469 20.7344C81.5781 21.0052 80.7604 21.901 80.0938 23.4219C79.5 24.7865 79.2031 26.1562 79.2031 27.5312C79.2031 27.6458 79.2083 27.7604 79.2188 27.875C79.2708 29.0312 79.5938 29.6094 80.1875 29.6094C80.4896 29.599 80.8698 29.4323 81.3281 29.1094C81.8177 28.7552 82.1823 28.4167 82.4219 28.0938ZM95.9531 23.5469C96.0365 22.9115 96.1406 21.7188 96.2656 19.9688C96.276 19.8854 96.2865 19.8073 96.2969 19.7344C96.4219 19.0781 96.8229 18.7396 97.5 18.7188C97.5312 18.7188 97.5677 18.724 97.6094 18.7344C98.1719 18.7969 98.4531 19.2344 98.4531 20.0469C98.4531 20.2552 98.4323 20.5677 98.3906 20.9844C98.3698 21.1719 98.3542 21.3125 98.3438 21.4062C98.1667 24.2292 98.0781 26.0156 98.0781 26.7656C98.0781 27.0365 98.0938 27.3073 98.125 27.5781C98.2917 28.901 98.7552 29.5625 99.5156 29.5625C99.6198 29.5625 99.7292 29.5521 99.8438 29.5312C100.146 29.4583 100.589 29.2135 101.172 28.7969C101.745 28.3802 102.203 28.1719 102.547 28.1719C102.682 28.1719 102.812 28.2135 102.938 28.2969C103.26 28.4948 103.422 28.8021 103.422 29.2188C103.422 29.25 103.417 29.2917 103.406 29.3438C103.333 29.8438 102.901 30.3594 102.109 30.8906C101.141 31.5469 100.177 31.875 99.2188 31.875C97.9271 31.8646 97.0052 31.276 96.4531 30.1094C95.5365 31.2344 94.2812 31.8021 92.6875 31.8125C92.3125 31.8125 91.9583 31.7656 91.625 31.6719C89.8021 31.1198 88.8906 29.1146 88.8906 25.6562C88.8906 23.9896 89.0729 22.3125 89.4375 20.625C89.4583 20.5417 89.4792 20.4531 89.5 20.3594C89.8229 19.2135 90.2812 18.6406 90.875 18.6406C91.6146 18.651 91.9948 19.0573 92.0156 19.8594C92.0156 20.026 91.9688 20.3958 91.875 20.9688C91.5104 23.3021 91.3281 24.9896 91.3281 26.0312C91.3281 28.1979 91.8802 29.2917 92.9844 29.3125C94.4115 29.3021 95.401 27.3802 95.9531 23.5469Z" fill="#64B5F6"/>
<rect width="28" height="28" rx="8" transform="matrix(1 0 0 -1 2 37)" fill="#64B5F6"/>
<path d="M3.15625 26.9844C3.15625 26.6302 3.17708 26.2552 3.21875 25.8594C3.4375 24.0781 4 22.4948 4.90625 21.1094C6.01042 19.4115 7.33854 18.5625 8.89062 18.5625C9.56771 18.5625 10.1562 18.6875 10.6562 18.9375C10.8542 18.6979 11.1302 18.5729 11.4844 18.5625C11.651 18.5625 11.8073 18.5833 11.9531 18.625C12.349 18.7708 12.5469 19.2083 12.5469 19.9375C12.5469 20.2396 12.4948 20.8854 12.3906 21.875C12.0781 24.8542 11.9219 26.6979 11.9219 27.4062C11.9219 27.8854 12.0156 28.3333 12.2031 28.75C12.4948 29.375 12.8854 29.6875 13.375 29.6875C13.5729 29.6875 13.7708 29.651 13.9688 29.5781C15.4375 29.0677 16.6823 26.8177 17.7031 22.8281C17.2865 22.724 16.901 22.5521 16.5469 22.3125C15.599 21.6771 15.125 20.7552 15.125 19.5469C15.125 19.099 15.2396 18.6771 15.4688 18.2812C15.9271 17.4896 16.6562 17.0938 17.6562 17.0938C18.1667 17.0938 18.651 17.2292 19.1094 17.5C19.8594 17.9688 20.2344 18.6146 20.2344 19.4375C20.2344 19.7708 20.2083 20.1979 20.1562 20.7188C20.4062 20.5833 20.7708 20.3542 21.25 20.0312C21.8125 19.6354 22.2344 19.4375 22.5156 19.4375C22.8385 19.4375 23.1302 19.5208 23.3906 19.6875C23.6927 19.875 23.8438 20.0677 23.8438 20.2656C23.8438 20.3281 23.8073 20.4948 23.7344 20.7656C23.1927 22.5677 22.9219 24.1562 22.9219 25.5312C22.9219 26.5521 23.026 27.3854 23.2344 28.0312C23.526 28.8854 23.9583 29.3125 24.5312 29.3125C24.8542 29.2917 25.3802 29.0625 26.1094 28.625C26.7448 28.1979 27.2188 27.9844 27.5312 27.9844C27.6875 27.9844 27.8438 28.0417 28 28.1562C28.2708 28.3542 28.4062 28.5885 28.4062 28.8594C28.375 29.4427 27.9688 30.0365 27.1875 30.6406C26.2604 31.3177 25.2708 31.6562 24.2188 31.6562C24.0938 31.6562 23.9635 31.651 23.8281 31.6406C22.6719 31.4948 21.8229 30.8281 21.2812 29.6406C20.8854 28.9427 20.6875 27.7344 20.6875 26.0156C20.6875 25.6823 20.6979 25.3281 20.7188 24.9531C20.7812 23.8177 20.875 23.0052 21 22.5156C20.6771 22.6719 20.2865 22.7969 19.8281 22.8906C19.7656 23.2135 19.6979 23.5312 19.625 23.8438C18.3438 29.2604 16.1354 31.9688 13 31.9688C11.6875 31.9583 10.7292 31.2969 10.125 29.9844C9.98958 30.1406 9.83333 30.3021 9.65625 30.4688C8.60417 31.4688 7.54167 31.9688 6.46875 31.9688C5.80208 31.9688 5.22396 31.7969 4.73438 31.4531C3.68229 30.6823 3.15625 29.1927 3.15625 26.9844ZM9.95312 22.3594C9.96354 22.2969 10.026 21.776 10.1406 20.7969C9.88021 20.6719 9.64062 20.6094 9.42188 20.6094C9.22396 20.6094 9.02604 20.6354 8.82812 20.6875C7.86979 20.9792 7.05729 21.8854 6.39062 23.4062C5.78646 24.7708 5.48438 26.1302 5.48438 27.4844C5.48438 27.6823 5.49479 27.8698 5.51562 28.0469C5.60938 29.0573 5.92708 29.5625 6.46875 29.5625C6.76042 29.5625 7.11458 29.4167 7.53125 29.125C8.02083 28.7812 8.41146 28.4219 8.70312 28.0469C8.78646 27.9219 8.90104 27.5938 9.04688 27.0625C9.45312 25.5417 9.75521 23.974 9.95312 22.3594ZM17.0156 19.6562C17.026 20.2396 17.3906 20.6562 18.1094 20.9062C18.2135 20.2604 18.2656 19.8438 18.2656 19.6562C18.2656 19.5938 18.2552 19.526 18.2344 19.4531C18.1615 19.1615 17.974 19.0156 17.6719 19.0156C17.6094 19.0156 17.5417 19.026 17.4688 19.0469C17.1667 19.1406 17.0156 19.3438 17.0156 19.6562Z" fill="white"/>
</svg>
