<svg width="103" height="46" viewBox="0 0 103 46" fill="none" xmlns="http://www.w3.org/2000/svg">
<path d="M31.1562 26.9844C31.1562 26.6302 31.1771 26.2552 31.2188 25.8594C31.4375 24.0781 32 22.4948 32.9062 21.1094C34.0104 19.4115 35.3385 18.5625 36.8906 18.5625C37.5677 18.5625 38.1562 18.6875 38.6562 18.9375C38.8542 18.6979 39.1302 18.5729 39.4844 18.5625C39.651 18.5625 39.8073 18.5833 39.9531 18.625C40.349 18.7708 40.5469 19.2083 40.5469 19.9375C40.5469 20.2396 40.4948 20.8854 40.3906 21.875C40.0781 24.8542 39.9219 26.6979 39.9219 27.4062C39.9219 27.8854 40.0156 28.3333 40.2031 28.75C40.4948 29.375 40.8854 29.6875 41.375 29.6875C41.5729 29.6875 41.7708 29.651 41.9688 29.5781C43.4375 29.0677 44.6823 26.8177 45.7031 22.8281C45.2865 22.724 44.901 22.5521 44.5469 22.3125C43.599 21.6771 43.125 20.7552 43.125 19.5469C43.125 19.099 43.2396 18.6771 43.4688 18.2812C43.9271 17.4896 44.6562 17.0938 45.6562 17.0938C46.1667 17.0938 46.651 17.2292 47.1094 17.5C47.8594 17.9688 48.2344 18.6146 48.2344 19.4375C48.2344 19.7708 48.2083 20.1979 48.1562 20.7188C48.4062 20.5833 48.7708 20.3542 49.25 20.0312C49.8125 19.6354 50.2344 19.4375 50.5156 19.4375C50.8385 19.4375 51.1302 19.5208 51.3906 19.6875C51.6927 19.875 51.8438 20.0677 51.8438 20.2656C51.8438 20.3281 51.8073 20.4948 51.7344 20.7656C51.1927 22.5677 50.9219 24.1562 50.9219 25.5312C50.9219 26.5521 51.026 27.3854 51.2344 28.0312C51.526 28.8854 51.9583 29.3125 52.5312 29.3125C52.8542 29.2917 53.3802 29.0625 54.1094 28.625C54.7448 28.1979 55.2188 27.9844 55.5312 27.9844C55.6875 27.9844 55.8438 28.0417 56 28.1562C56.2708 28.3542 56.4062 28.5885 56.4062 28.8594C56.375 29.4427 55.9688 30.0365 55.1875 30.6406C54.2604 31.3177 53.2708 31.6562 52.2188 31.6562C52.0938 31.6562 51.9635 31.651 51.8281 31.6406C50.6719 31.4948 49.8229 30.8281 49.2812 29.6406C48.8854 28.9427 48.6875 27.7344 48.6875 26.0156C48.6875 25.6823 48.6979 25.3281 48.7188 24.9531C48.7812 23.8177 48.875 23.0052 49 22.5156C48.6771 22.6719 48.2865 22.7969 47.8281 22.8906C47.7656 23.2135 47.6979 23.5312 47.625 23.8438C46.3438 29.2604 44.1354 31.9688 41 31.9688C39.6875 31.9583 38.7292 31.2969 38.125 29.9844C37.9896 30.1406 37.8333 30.3021 37.6562 30.4688C36.6042 31.4688 35.5417 31.9688 34.4688 31.9688C33.8021 31.9688 33.224 31.7969 32.7344 31.4531C31.6823 30.6823 31.1562 29.1927 31.1562 26.9844ZM37.9531 22.3594C37.9635 22.2969 38.026 21.776 38.1406 20.7969C37.8802 20.6719 37.6406 20.6094 37.4219 20.6094C37.224 20.6094 37.026 20.6354 36.8281 20.6875C35.8698 20.9792 35.0573 21.8854 34.3906 23.4062C33.7865 24.7708 33.4844 26.1302 33.4844 27.4844C33.4844 27.6823 33.4948 27.8698 33.5156 28.0469C33.6094 29.0573 33.9271 29.5625 34.4688 29.5625C34.7604 29.5625 35.1146 29.4167 35.5312 29.125C36.0208 28.7812 36.4115 28.4219 36.7031 28.0469C36.7865 27.9219 36.901 27.5938 37.0469 27.0625C37.4531 25.5417 37.7552 23.974 37.9531 22.3594ZM45.0156 19.6562C45.026 20.2396 45.3906 20.6562 46.1094 20.9062C46.2135 20.2604 46.2656 19.8438 46.2656 19.6562C46.2656 19.5938 46.2552 19.526 46.2344 19.4531C46.1615 19.1615 45.974 19.0156 45.6719 19.0156C45.6094 19.0156 45.5417 19.026 45.4688 19.0469C45.1667 19.1406 45.0156 19.3438 45.0156 19.6562ZM55.3906 23.0156C55.401 22.9948 55.4219 22.9479 55.4531 22.875C56.401 20.7292 56.875 19.6458 56.875 19.625C56.875 19.6146 56.8802 19.6042 56.8906 19.5938C57.099 19.0625 57.4948 18.7969 58.0781 18.7969C58.2865 18.8073 58.5 18.8281 58.7188 18.8594C60.4688 19.1302 61.8906 20.0208 62.9844 21.5312C63.9948 22.9375 64.5 24.5417 64.5 26.3438C64.5 27.2917 64.3125 28.2865 63.9375 29.3281C63.3958 30.8594 62.6562 31.625 61.7188 31.625C61.5521 31.625 61.3802 31.5677 61.2031 31.4531C60.8698 31.2031 60.7031 30.8802 60.7031 30.4844C60.7031 30.349 60.7344 30.2083 60.7969 30.0625C60.7969 30.0625 60.8542 29.9583 60.9688 29.75C61.7188 28.5312 62.099 27.3177 62.1094 26.1094C62.1094 25.974 62.1042 25.8333 62.0938 25.6875C61.9896 24.3438 61.4688 23.1979 60.5312 22.25C59.9167 21.625 59.3646 21.3073 58.875 21.2969C58.6979 21.6302 58.3177 22.375 57.7344 23.5312C57.7344 23.5312 57.7292 23.5417 57.7188 23.5625C57.7083 23.5833 57.6979 23.599 57.6875 23.6094C57.2396 24.474 56.7656 24.9062 56.2656 24.9062C56.1198 24.9062 55.9688 24.875 55.8125 24.8125C55.3958 24.625 55.1875 24.3125 55.1875 23.875C55.1875 23.7083 55.2396 23.474 55.3438 23.1719C55.3646 23.099 55.3802 23.0469 55.3906 23.0156ZM65.8594 27.2188C65.8594 26.8646 65.8802 26.4896 65.9219 26.0938C66.1406 24.3125 66.7031 22.7292 67.6094 21.3438C68.7135 19.6458 70.0417 18.7969 71.5938 18.7969C72.0104 18.7969 72.4115 18.849 72.7969 18.9531C74.1719 19.349 74.8594 20.3177 74.8594 21.8594C74.8594 21.974 74.8542 22.0938 74.8438 22.2188C74.7396 23.6146 74.1146 24.7865 72.9688 25.7344C71.8438 26.6719 70.5365 27.1406 69.0469 27.1406C68.7656 27.1406 68.4896 27.1146 68.2188 27.0625C68.1979 27.2188 68.1875 27.4375 68.1875 27.7188C68.1875 28.3229 68.2917 28.7917 68.5 29.125C68.7812 29.5521 69.3594 29.8021 70.2344 29.875C70.6198 29.875 71 29.8333 71.375 29.75C72.0312 29.5938 72.8073 29.224 73.7031 28.6406C74.2865 28.2552 74.6979 28.0625 74.9375 28.0625C75.0729 28.0625 75.2135 28.1042 75.3594 28.1875C75.6927 28.3854 75.8594 28.6719 75.8594 29.0469C75.8594 29.1719 75.8333 29.3073 75.7812 29.4531C75.5 30.1302 74.6562 30.7708 73.25 31.375C71.9479 31.9375 70.8021 32.2188 69.8125 32.2188C69.4375 32.2188 69.0885 32.1875 68.7656 32.125C66.8281 31.7292 65.8594 30.0938 65.8594 27.2188ZM70.875 21.25C69.9271 21.8854 69.1823 23.0938 68.6406 24.875C68.901 24.9375 69.151 24.9688 69.3906 24.9688C70.2552 24.9688 71.0104 24.7031 71.6562 24.1719C72.375 23.5885 72.7344 22.8958 72.7344 22.0938C72.7344 21.2917 72.4792 20.8854 71.9688 20.875C71.6042 20.8854 71.2396 21.0104 70.875 21.25ZM75.8594 27.0312C75.8594 26.6771 75.8802 26.3021 75.9219 25.9062C76.1406 24.125 76.7031 22.5417 77.6094 21.1562C78.7135 19.4583 80.0417 18.6094 81.5938 18.6094C82.1354 18.6094 82.6615 18.7083 83.1719 18.9062L84.4375 9.90625C84.6042 8.6875 85.0417 8.07292 85.75 8.0625C85.8646 8.0625 85.9792 8.07292 86.0938 8.09375C86.5729 8.20833 86.8125 8.66146 86.8125 9.45312C86.8125 9.77604 86.5885 11.6094 86.1406 14.9531C85.1302 22.5677 84.625 26.7552 84.625 27.5156C84.625 27.9948 84.724 28.4427 84.9219 28.8594C85.2135 29.4844 85.6042 29.7969 86.0938 29.7969C86.1875 29.7969 86.2865 29.7865 86.3906 29.7656C86.7031 29.7031 87.1562 29.4635 87.75 29.0469C88.3333 28.6302 88.7969 28.4219 89.1406 28.4219C89.2865 28.4219 89.4219 28.474 89.5469 28.5781C89.7969 28.7865 89.9219 29.0521 89.9219 29.375C89.8802 29.9167 89.474 30.4844 88.7031 31.0781C87.7656 31.7448 86.7708 32.0781 85.7188 32.0781C84.4167 32.0677 83.4323 31.4115 82.7656 30.1094C82.6094 30.2969 82.4323 30.4792 82.2344 30.6562C81.2344 31.5729 80.2188 32.0312 79.1875 32.0312C78.5312 32.0312 77.9635 31.8646 77.4844 31.5312C76.401 30.7812 75.8594 29.2812 75.8594 27.0312ZM81.4219 28.0938C81.5573 27.8958 81.724 27.3802 81.9219 26.5469C82.3385 24.7448 82.6562 22.8542 82.875 20.875C82.6354 20.7604 82.3854 20.6875 82.125 20.6562C81.9375 20.6562 81.7448 20.6823 81.5469 20.7344C80.5781 21.0052 79.7604 21.901 79.0938 23.4219C78.5 24.7865 78.2031 26.1562 78.2031 27.5312C78.2031 27.6458 78.2083 27.7604 78.2188 27.875C78.2708 29.0312 78.5938 29.6094 79.1875 29.6094C79.4896 29.599 79.8698 29.4323 80.3281 29.1094C80.8177 28.7552 81.1823 28.4167 81.4219 28.0938ZM94.9531 23.5469C95.0365 22.9115 95.1406 21.7188 95.2656 19.9688C95.276 19.8854 95.2865 19.8073 95.2969 19.7344C95.4219 19.0781 95.8229 18.7396 96.5 18.7188C96.5312 18.7188 96.5677 18.724 96.6094 18.7344C97.1719 18.7969 97.4531 19.2344 97.4531 20.0469C97.4531 20.2552 97.4323 20.5677 97.3906 20.9844C97.3698 21.1719 97.3542 21.3125 97.3438 21.4062C97.1667 24.2292 97.0781 26.0156 97.0781 26.7656C97.0781 27.0365 97.0938 27.3073 97.125 27.5781C97.2917 28.901 97.7552 29.5625 98.5156 29.5625C98.6198 29.5625 98.7292 29.5521 98.8438 29.5312C99.1458 29.4583 99.5885 29.2135 100.172 28.7969C100.745 28.3802 101.203 28.1719 101.547 28.1719C101.682 28.1719 101.812 28.2135 101.938 28.2969C102.26 28.4948 102.422 28.8021 102.422 29.2188C102.422 29.25 102.417 29.2917 102.406 29.3438C102.333 29.8438 101.901 30.3594 101.109 30.8906C100.141 31.5469 99.1771 31.875 98.2188 31.875C96.9271 31.8646 96.0052 31.276 95.4531 30.1094C94.5365 31.2344 93.2812 31.8021 91.6875 31.8125C91.3125 31.8125 90.9583 31.7656 90.625 31.6719C88.8021 31.1198 87.8906 29.1146 87.8906 25.6562C87.8906 23.9896 88.0729 22.3125 88.4375 20.625C88.4583 20.5417 88.4792 20.4531 88.5 20.3594C88.8229 19.2135 89.2812 18.6406 89.875 18.6406C90.6146 18.651 90.9948 19.0573 91.0156 19.8594C91.0156 20.026 90.9688 20.3958 90.875 20.9688C90.5104 23.3021 90.3281 24.9896 90.3281 26.0312C90.3281 28.1979 90.8802 29.2917 91.9844 29.3125C93.4115 29.3021 94.401 27.3802 94.9531 23.5469Z" fill="#64B5F6"/>
<rect width="28" height="28" rx="8" transform="matrix(1 0 0 -1 1 37)" fill="#64B5F6"/>
<path d="M2.15625 26.9844C2.15625 26.6302 2.17708 26.2552 2.21875 25.8594C2.4375 24.0781 3 22.4948 3.90625 21.1094C5.01042 19.4115 6.33854 18.5625 7.89062 18.5625C8.56771 18.5625 9.15625 18.6875 9.65625 18.9375C9.85417 18.6979 10.1302 18.5729 10.4844 18.5625C10.651 18.5625 10.8073 18.5833 10.9531 18.625C11.349 18.7708 11.5469 19.2083 11.5469 19.9375C11.5469 20.2396 11.4948 20.8854 11.3906 21.875C11.0781 24.8542 10.9219 26.6979 10.9219 27.4062C10.9219 27.8854 11.0156 28.3333 11.2031 28.75C11.4948 29.375 11.8854 29.6875 12.375 29.6875C12.5729 29.6875 12.7708 29.651 12.9688 29.5781C14.4375 29.0677 15.6823 26.8177 16.7031 22.8281C16.2865 22.724 15.901 22.5521 15.5469 22.3125C14.599 21.6771 14.125 20.7552 14.125 19.5469C14.125 19.099 14.2396 18.6771 14.4688 18.2812C14.9271 17.4896 15.6562 17.0938 16.6562 17.0938C17.1667 17.0938 17.651 17.2292 18.1094 17.5C18.8594 17.9688 19.2344 18.6146 19.2344 19.4375C19.2344 19.7708 19.2083 20.1979 19.1562 20.7188C19.4062 20.5833 19.7708 20.3542 20.25 20.0312C20.8125 19.6354 21.2344 19.4375 21.5156 19.4375C21.8385 19.4375 22.1302 19.5208 22.3906 19.6875C22.6927 19.875 22.8438 20.0677 22.8438 20.2656C22.8438 20.3281 22.8073 20.4948 22.7344 20.7656C22.1927 22.5677 21.9219 24.1562 21.9219 25.5312C21.9219 26.5521 22.026 27.3854 22.2344 28.0312C22.526 28.8854 22.9583 29.3125 23.5312 29.3125C23.8542 29.2917 24.3802 29.0625 25.1094 28.625C25.7448 28.1979 26.2188 27.9844 26.5312 27.9844C26.6875 27.9844 26.8438 28.0417 27 28.1562C27.2708 28.3542 27.4062 28.5885 27.4062 28.8594C27.375 29.4427 26.9688 30.0365 26.1875 30.6406C25.2604 31.3177 24.2708 31.6562 23.2188 31.6562C23.0938 31.6562 22.9635 31.651 22.8281 31.6406C21.6719 31.4948 20.8229 30.8281 20.2812 29.6406C19.8854 28.9427 19.6875 27.7344 19.6875 26.0156C19.6875 25.6823 19.6979 25.3281 19.7188 24.9531C19.7812 23.8177 19.875 23.0052 20 22.5156C19.6771 22.6719 19.2865 22.7969 18.8281 22.8906C18.7656 23.2135 18.6979 23.5312 18.625 23.8438C17.3438 29.2604 15.1354 31.9688 12 31.9688C10.6875 31.9583 9.72917 31.2969 9.125 29.9844C8.98958 30.1406 8.83333 30.3021 8.65625 30.4688C7.60417 31.4688 6.54167 31.9688 5.46875 31.9688C4.80208 31.9688 4.22396 31.7969 3.73438 31.4531C2.68229 30.6823 2.15625 29.1927 2.15625 26.9844ZM8.95312 22.3594C8.96354 22.2969 9.02604 21.776 9.14062 20.7969C8.88021 20.6719 8.64062 20.6094 8.42188 20.6094C8.22396 20.6094 8.02604 20.6354 7.82812 20.6875C6.86979 20.9792 6.05729 21.8854 5.39062 23.4062C4.78646 24.7708 4.48438 26.1302 4.48438 27.4844C4.48438 27.6823 4.49479 27.8698 4.51562 28.0469C4.60938 29.0573 4.92708 29.5625 5.46875 29.5625C5.76042 29.5625 6.11458 29.4167 6.53125 29.125C7.02083 28.7812 7.41146 28.4219 7.70312 28.0469C7.78646 27.9219 7.90104 27.5938 8.04688 27.0625C8.45312 25.5417 8.75521 23.974 8.95312 22.3594ZM16.0156 19.6562C16.026 20.2396 16.3906 20.6562 17.1094 20.9062C17.2135 20.2604 17.2656 19.8438 17.2656 19.6562C17.2656 19.5938 17.2552 19.526 17.2344 19.4531C17.1615 19.1615 16.974 19.0156 16.6719 19.0156C16.6094 19.0156 16.5417 19.026 16.4688 19.0469C16.1667 19.1406 16.0156 19.3438 16.0156 19.6562Z" fill="white"/>
</svg>
