<svg width="80" height="80" viewBox="0 0 80 80" fill="none" xmlns="http://www.w3.org/2000/svg">
<rect width="80" height="80" rx="10" fill="#64B5F6"/>
<path d="M26.5276 47.5541C26.7806 47.8081 26.9745 48.1148 27.0954 48.4522C27.2163 48.7897 27.2613 49.1497 27.2272 49.5066C27.0559 51.1582 26.7311 52.7902 26.2571 54.3816C29.6574 53.5943 31.7341 52.6826 32.6774 52.2049C33.2125 51.9339 33.8286 51.8697 34.4081 52.0245C36.0691 52.4673 37.781 52.6902 39.5 52.6875C49.2402 52.6875 56.5625 45.8454 56.5625 38.0625C56.5625 30.282 49.2402 23.4375 39.5 23.4375C29.7597 23.4375 22.4375 30.282 22.4375 38.0625C22.4375 41.6408 23.9414 44.9606 26.5276 47.5541ZM25.3259 57.0726C24.7484 57.187 24.169 57.2919 23.588 57.387C23.1005 57.465 22.73 56.958 22.9226 56.5046C23.139 55.9942 23.3374 55.4763 23.5173 54.9519L23.5246 54.9276C24.1291 53.1726 24.6215 51.1543 24.8019 49.275C21.8111 46.2769 20 42.3525 20 38.0625C20 28.6391 28.7311 21 39.5 21C50.2689 21 59 28.6391 59 38.0625C59 47.4859 50.2689 55.125 39.5 55.125C37.5687 55.1276 35.6453 54.8768 33.7792 54.3791C32.5117 55.0202 29.7841 56.1878 25.3259 57.0726Z" fill="white"/>
<path d="M29.75 31.9688C29.75 31.6455 29.8784 31.3355 30.107 31.107C30.3355 30.8784 30.6455 30.75 30.9688 30.75H48.0312C48.3545 30.75 48.6645 30.8784 48.893 31.107C49.1216 31.3355 49.25 31.6455 49.25 31.9688C49.25 32.292 49.1216 32.602 48.893 32.8305C48.6645 33.0591 48.3545 33.1875 48.0312 33.1875H30.9688C30.6455 33.1875 30.3355 33.0591 30.107 32.8305C29.8784 32.602 29.75 32.292 29.75 31.9688ZM29.75 38.0625C29.75 37.7393 29.8784 37.4293 30.107 37.2007C30.3355 36.9722 30.6455 36.8438 30.9688 36.8438H48.0312C48.3545 36.8438 48.6645 36.9722 48.893 37.2007C49.1216 37.4293 49.25 37.7393 49.25 38.0625C49.25 38.3857 49.1216 38.6957 48.893 38.9243C48.6645 39.1528 48.3545 39.2813 48.0312 39.2813H30.9688C30.6455 39.2813 30.3355 39.1528 30.107 38.9243C29.8784 38.6957 29.75 38.3857 29.75 38.0625ZM29.75 44.1563C29.75 43.833 29.8784 43.523 30.107 43.2945C30.3355 43.0659 30.6455 42.9375 30.9688 42.9375H40.7188C41.042 42.9375 41.352 43.0659 41.5805 43.2945C41.8091 43.523 41.9375 43.833 41.9375 44.1563C41.9375 44.4795 41.8091 44.7895 41.5805 45.018C41.352 45.2466 41.042 45.375 40.7188 45.375H30.9688C30.6455 45.375 30.3355 45.2466 30.107 45.018C29.8784 44.7895 29.75 44.4795 29.75 44.1563Z" fill="white"/>
</svg>
